<mxfile host="app.diagrams.net" agent="Mozilla/5.0 (Macintosh; Intel Mac OS X 10_15_7) AppleWebKit/537.36 (KHTML, like Gecko) Chrome/130.0.0.0 Safari/537.36" version="24.8.6">
  <diagram name="第 1 页" id="jLr4lrlrVHVJPcqsL-fy">
    <mxGraphModel dx="1375" dy="796" grid="1" gridSize="10" guides="1" tooltips="1" connect="1" arrows="1" fold="1" page="1" pageScale="1" pageWidth="827" pageHeight="1169" math="0" shadow="0">
      <root>
        <mxCell id="0" />
        <mxCell id="1" parent="0" />
        <mxCell id="9K5wpRG9sUKZ4BDB4qsN-1" value="管理员" style="shape=umlActor;verticalLabelPosition=bottom;verticalAlign=top;html=1;outlineConnect=0;" parent="1" vertex="1">
          <mxGeometry x="210" y="440" width="30" height="60" as="geometry" />
        </mxCell>
        <mxCell id="9K5wpRG9sUKZ4BDB4qsN-7" value="知识点管理" style="ellipse;whiteSpace=wrap;html=1;" parent="1" vertex="1">
          <mxGeometry x="414" y="250" width="140" height="40" as="geometry" />
        </mxCell>
        <mxCell id="9K5wpRG9sUKZ4BDB4qsN-8" value="" style="endArrow=open;endFill=1;endSize=12;html=1;rounded=0;exitX=1;exitY=0.3333333333333333;exitDx=0;exitDy=0;exitPerimeter=0;entryX=0;entryY=0.5;entryDx=0;entryDy=0;" parent="1" source="9K5wpRG9sUKZ4BDB4qsN-1" target="9K5wpRG9sUKZ4BDB4qsN-7" edge="1">
          <mxGeometry width="160" relative="1" as="geometry">
            <mxPoint x="240" y="520" as="sourcePoint" />
            <mxPoint x="400" y="520" as="targetPoint" />
          </mxGeometry>
        </mxCell>
        <mxCell id="9K5wpRG9sUKZ4BDB4qsN-9" value="案例管理" style="ellipse;whiteSpace=wrap;html=1;" parent="1" vertex="1">
          <mxGeometry x="414" y="450" width="140" height="40" as="geometry" />
        </mxCell>
        <mxCell id="9K5wpRG9sUKZ4BDB4qsN-10" value="" style="endArrow=open;endFill=1;endSize=12;html=1;rounded=0;entryX=0;entryY=0.5;entryDx=0;entryDy=0;" parent="1" target="9K5wpRG9sUKZ4BDB4qsN-9" edge="1">
          <mxGeometry width="160" relative="1" as="geometry">
            <mxPoint x="290" y="460" as="sourcePoint" />
            <mxPoint x="440" y="380" as="targetPoint" />
          </mxGeometry>
        </mxCell>
        <mxCell id="9K5wpRG9sUKZ4BDB4qsN-11" value="试题管理" style="ellipse;whiteSpace=wrap;html=1;" parent="1" vertex="1">
          <mxGeometry x="414" y="320" width="140" height="40" as="geometry" />
        </mxCell>
        <mxCell id="9K5wpRG9sUKZ4BDB4qsN-12" value="课程管理" style="ellipse;whiteSpace=wrap;html=1;" parent="1" vertex="1">
          <mxGeometry x="414" y="520" width="140" height="40" as="geometry" />
        </mxCell>
        <mxCell id="9K5wpRG9sUKZ4BDB4qsN-13" value="学习任务管理" style="ellipse;whiteSpace=wrap;html=1;" parent="1" vertex="1">
          <mxGeometry x="414" y="600" width="140" height="40" as="geometry" />
        </mxCell>
        <mxCell id="9K5wpRG9sUKZ4BDB4qsN-14" value="" style="endArrow=open;endFill=1;endSize=12;html=1;rounded=0;entryX=0;entryY=0.5;entryDx=0;entryDy=0;" parent="1" target="9K5wpRG9sUKZ4BDB4qsN-11" edge="1">
          <mxGeometry width="160" relative="1" as="geometry">
            <mxPoint x="300" y="460" as="sourcePoint" />
            <mxPoint x="440" y="450" as="targetPoint" />
            <Array as="points">
              <mxPoint x="240" y="460" />
            </Array>
          </mxGeometry>
        </mxCell>
        <mxCell id="9K5wpRG9sUKZ4BDB4qsN-15" value="" style="endArrow=open;endFill=1;endSize=12;html=1;rounded=0;entryX=0;entryY=0.5;entryDx=0;entryDy=0;" parent="1" target="9K5wpRG9sUKZ4BDB4qsN-12" edge="1">
          <mxGeometry width="160" relative="1" as="geometry">
            <mxPoint x="240" y="460" as="sourcePoint" />
            <mxPoint x="430" y="550" as="targetPoint" />
          </mxGeometry>
        </mxCell>
        <mxCell id="9K5wpRG9sUKZ4BDB4qsN-16" value="" style="endArrow=open;endFill=1;endSize=12;html=1;rounded=0;entryX=-0.016;entryY=0.392;entryDx=0;entryDy=0;entryPerimeter=0;exitX=1;exitY=0.3333333333333333;exitDx=0;exitDy=0;exitPerimeter=0;" parent="1" target="9K5wpRG9sUKZ4BDB4qsN-13" edge="1" source="9K5wpRG9sUKZ4BDB4qsN-1">
          <mxGeometry width="160" relative="1" as="geometry">
            <mxPoint x="290" y="460" as="sourcePoint" />
            <mxPoint x="460" y="590" as="targetPoint" />
          </mxGeometry>
        </mxCell>
        <mxCell id="0O4qhSUyokO77OFxhCxH-42" value="各类审批" style="ellipse;whiteSpace=wrap;html=1;" vertex="1" parent="1">
          <mxGeometry x="414" y="660" width="126" height="45" as="geometry" />
        </mxCell>
        <mxCell id="0O4qhSUyokO77OFxhCxH-43" value="" style="endArrow=open;endFill=1;endSize=12;html=1;rounded=0;entryX=0;entryY=0.5;entryDx=0;entryDy=0;exitX=1;exitY=0.3333333333333333;exitDx=0;exitDy=0;exitPerimeter=0;" edge="1" parent="1" source="9K5wpRG9sUKZ4BDB4qsN-1" target="0O4qhSUyokO77OFxhCxH-42">
          <mxGeometry width="160" relative="1" as="geometry">
            <mxPoint x="300" y="470" as="sourcePoint" />
            <mxPoint x="408" y="656" as="targetPoint" />
          </mxGeometry>
        </mxCell>
        <mxCell id="0O4qhSUyokO77OFxhCxH-48" value="错误反馈" style="ellipse;whiteSpace=wrap;html=1;" vertex="1" parent="1">
          <mxGeometry x="414" y="380" width="140" height="40" as="geometry" />
        </mxCell>
        <mxCell id="0O4qhSUyokO77OFxhCxH-49" value="" style="endArrow=open;endFill=1;endSize=12;html=1;rounded=0;entryX=0;entryY=0.5;entryDx=0;entryDy=0;" edge="1" parent="1" target="0O4qhSUyokO77OFxhCxH-48">
          <mxGeometry width="160" relative="1" as="geometry">
            <mxPoint x="240" y="460" as="sourcePoint" />
            <mxPoint x="410" y="350" as="targetPoint" />
            <Array as="points" />
          </mxGeometry>
        </mxCell>
        <mxCell id="0O4qhSUyokO77OFxhCxH-51" value="培训管理系统" style="shape=umlFrame;whiteSpace=wrap;html=1;pointerEvents=0;" vertex="1" parent="1">
          <mxGeometry x="298.15" y="150" width="381.85" height="640" as="geometry" />
        </mxCell>
        <mxCell id="0O4qhSUyokO77OFxhCxH-53" value="需求管理" style="ellipse;whiteSpace=wrap;html=1;" vertex="1" parent="1">
          <mxGeometry x="414" y="190" width="140" height="40" as="geometry" />
        </mxCell>
        <mxCell id="0O4qhSUyokO77OFxhCxH-54" value="" style="endArrow=open;endFill=1;endSize=12;html=1;rounded=0;entryX=0;entryY=0.5;entryDx=0;entryDy=0;" edge="1" parent="1" target="0O4qhSUyokO77OFxhCxH-53">
          <mxGeometry width="160" relative="1" as="geometry">
            <mxPoint x="240" y="460" as="sourcePoint" />
            <mxPoint x="424" y="280" as="targetPoint" />
          </mxGeometry>
        </mxCell>
        <mxCell id="0O4qhSUyokO77OFxhCxH-58" value="认证管理" style="ellipse;whiteSpace=wrap;html=1;" vertex="1" parent="1">
          <mxGeometry x="414" y="720" width="126" height="45" as="geometry" />
        </mxCell>
        <mxCell id="0O4qhSUyokO77OFxhCxH-59" value="" style="endArrow=open;endFill=1;endSize=12;html=1;rounded=0;exitX=1;exitY=0.3333333333333333;exitDx=0;exitDy=0;exitPerimeter=0;entryX=0;entryY=0.5;entryDx=0;entryDy=0;" edge="1" parent="1" source="9K5wpRG9sUKZ4BDB4qsN-1" target="0O4qhSUyokO77OFxhCxH-58">
          <mxGeometry width="160" relative="1" as="geometry">
            <mxPoint x="250" y="470" as="sourcePoint" />
            <mxPoint x="424" y="693" as="targetPoint" />
          </mxGeometry>
        </mxCell>
      </root>
    </mxGraphModel>
  </diagram>
</mxfile>
